<svg width="100" height="100" viewBox="0 0 100 100" fill="none" xmlns="http://www.w3.org/2000/svg">
  <!-- S -->
  <path d="M22 32 C22 24, 28 20, 36 22 C42 24, 44 28, 42 34 L42 42 C40 48, 36 50, 30 50 C24 50, 20 46, 20 40" fill="none" stroke="#0f172a" stroke-width="5" stroke-linecap="round" stroke-linejoin="round" />
  <path d="M42 50 C44 56, 42 62, 36 66 C28 70, 22 68, 22 62 L22 56 C22 52, 26 50, 30 50" fill="none" stroke="#0f172a" stroke-width="5" stroke-linecap="round" stroke-linejoin="round" />
  <!-- J -->
  <path d="M58 22 L78 22 L78 58 C78 68, 72 74, 62 74 C56 74, 52 70, 52 64" fill="none" stroke="#0f172a" stroke-width="5" stroke-linecap="round" stroke-linejoin="round" />
</svg>
