<svg viewBox="0 0 100 100" fill="none" xmlns="http://www.w3.org/2000/svg">
  <defs>
    <filter id="brushTextureFavicon" x="-20%" y="-20%" width="140%" height="140%">
      <feTurbulence type="fractalNoise" baseFrequency="0.7" numOctaves="3" result="turbulence"/>
      <feDisplacementMap in="SourceGraphic" in2="turbulence" scale="1" xChannelSelector="R" yChannelSelector="G"/>
    </filter>
    <filter id="brushGlowFavicon">
      <feGaussianBlur stdDeviation="1.5" result="coloredBlur"/>
      <feMerge>
        <feMergeNode in="coloredBlur"/>
        <feMergeNode in="SourceGraphic"/>
      </feMerge>
    </filter>
  </defs>
  
  <rect width="100" height="100" fill="#0a0a0a"/>
  
  <path
    d="M8 20 C8 12, 16 10, 22 14 C28 18, 28 24, 24 28 C20 32, 14 32, 14 36 C14 40, 18 42, 22 40 C26 38, 28 42, 28 48 C28 54, 22 58, 16 58 C10 58, 6 54, 6 48"
    stroke="white"
    strokeWidth="7"
    strokeLinecap="round"
    strokeLinejoin="round"
    fill="none"
    filter="url(#brushGlowFavicon)"
    opacity="1"
  />
  
  <path
    d="M50 10 L70 10 L70 46 C70 56, 64 62, 54 62 C48 62, 44 58, 44 52"
    stroke="white"
    strokeWidth="7"
    strokeLinecap="round"
    strokeLinejoin="round"
    fill="none"
    filter="url(#brushGlowFavicon)"
    opacity="1"
  />
  
  <path
    d="M8 20 C8 12, 16 10, 22 14 C28 18, 28 24, 24 28 C20 32, 14 32, 14 36 C14 40, 18 42, 22 40 C26 38, 28 42, 28 48 C28 54, 22 58, 16 58 C10 58, 6 54, 6 48"
    stroke="white"
    strokeWidth="6"
    strokeLinecap="round"
    strokeLinejoin="round"
    fill="none"
    filter="url(#brushTextureFavicon)"
    opacity="0.5"
  />
  <path
    d="M50 10 L70 10 L70 46 C70 56, 64 62, 54 62 C48 62, 44 58, 44 52"
    stroke="white"
    strokeWidth="6"
    strokeLinecap="round"
    strokeLinejoin="round"
    fill="none"
    filter="url(#brushTextureFavicon)"
    opacity="0.5"
  />
</svg>
